<svg version="1.1" id="Layer_1" xmlns="http://www.w3.org/2000/svg" xmlns:xlink="http://www.w3.org/1999/xlink" x="0px" y="0px"
	 width="100%" viewBox="0 0 312 75" enable-background="new 0 0 312 75" xml:space="preserve">
<path fill="#47704C" opacity="1.000000" stroke="none" 
	d="
M50.000000,76.000000 
	C33.679417,76.000000 17.358831,76.000000 1.019124,76.000000 
	C1.019124,51.032276 1.019124,26.064535 1.019124,1.048396 
	C104.886536,1.048396 208.773102,1.048396 312.829834,1.048396 
	C312.829834,25.999168 312.829834,50.999424 312.829834,76.000000 
	C296.578613,76.000000 280.257965,76.000000 263.401001,75.733421 
	C262.621582,74.986382 262.378448,74.505928 262.515533,74.006111 
	C266.660583,72.444336 270.864197,71.523987 274.104584,69.238098 
	C282.463806,63.341183 289.926605,56.532970 290.359955,44.762241 
	C290.771881,40.007523 291.417603,35.490826 290.841461,31.135756 
	C290.420410,27.953266 288.391693,24.983465 287.019745,21.571201 
	C280.605347,9.226598 270.383148,3.493633 257.064453,3.027238 
	C244.831375,2.598860 234.545395,6.588505 227.034348,16.713051 
	C225.596664,18.650980 223.672531,20.228003 221.656647,21.823624 
	C218.324020,15.218540 213.210159,11.173878 207.239532,7.310443 
	C198.502747,1.657120 180.634689,2.562848 172.920273,6.601077 
	C165.775391,10.341169 161.138107,16.450787 156.598450,22.841091 
	C155.896683,22.118521 155.461945,21.516476 155.022644,20.949200 
	C155.018082,20.983969 155.088013,20.989285 154.965317,20.693108 
	C154.235046,19.572323 153.627457,18.747711 153.014145,17.956957 
	C153.008423,17.990812 153.076874,17.996353 152.949722,17.685528 
	C152.189209,16.474771 151.555847,15.574844 150.876556,14.525091 
	C150.707123,14.184135 150.531723,14.083229 150.175156,13.732451 
	C149.034317,12.577669 148.022751,11.762981 147.004395,10.974669 
	C146.997620,11.001041 147.048630,10.981952 146.928589,10.669706 
	C145.542145,9.554155 144.275742,8.750849 143.000641,7.975138 
	C142.991943,8.002733 143.049713,7.999307 142.936859,7.722077 
	C142.451675,7.347126 142.079346,7.249404 141.610199,7.105608 
	C141.513382,7.059533 141.299103,7.067553 141.087646,6.741364 
	C136.597733,5.330764 132.319260,4.246353 127.589821,3.101518 
	C124.411537,3.081267 121.684212,3.121441 118.531876,3.102798 
	C109.332489,3.358208 102.086517,6.626770 96.978439,13.995058 
	C97.000214,14.004353 96.981575,13.960851 96.672928,14.075020 
	C95.877754,15.122298 95.391243,16.055407 94.941803,16.987083 
	C94.978882,16.985653 94.974976,16.911541 94.655762,17.057640 
	C92.878578,18.837317 91.420601,20.470890 89.675049,21.913185 
	C86.763695,18.422855 84.379509,14.893570 81.471588,11.867585 
	C72.460327,2.490455 49.020332,-1.260913 35.565926,9.956504 
	C33.791805,11.346218 32.375748,12.675244 30.986355,14.008671 
	C31.013018,14.013070 31.004549,13.959689 30.643993,13.983856 
	C28.841709,16.346277 27.399979,18.684532 25.989269,21.019207 
	C26.020292,21.015631 26.004211,20.955280 25.646364,21.005589 
	C24.549904,23.144207 23.811289,25.232513 23.048149,27.743992 
	C22.969183,29.813971 23.196442,31.529905 22.812189,33.095783 
	C21.020931,40.395374 22.412140,47.287502 25.182171,54.295307 
	C25.404053,54.829540 25.669867,55.002357 26.010101,55.017067 
	C26.006264,54.979301 25.930653,54.986137 25.955410,55.303246 
	C26.314161,56.103443 26.648153,56.586533 26.992670,57.038464 
	C27.003195,57.007301 26.938309,56.996456 27.060831,57.291737 
	C27.774971,58.443192 28.366589,59.299366 29.049606,60.353954 
	C29.317902,60.800205 29.553316,60.963882 29.940044,61.387390 
	C31.357553,63.165516 32.682266,64.599648 34.009193,66.008835 
	C34.011414,65.983887 33.962914,65.996414 34.101086,66.278061 
	C34.832993,66.724617 35.426727,66.889526 36.015469,67.021759 
	C36.010475,66.989067 35.944817,66.996780 35.985432,67.358871 
	C40.684032,70.480644 45.342014,73.240318 50.000000,76.000000 
z"/>
<path fill="#47704C" opacity="1.000000" stroke="none" 
	d="
M248.000000,76.000000 
	C231.312439,76.000000 214.624878,76.000000 197.602722,75.661057 
	C200.194000,73.885689 203.119843,72.449257 206.020782,71.003677 
	C205.995850,70.994514 205.991882,71.047691 206.266876,70.954376 
	C206.779251,70.557747 207.016647,70.254433 207.387604,69.942596 
	C207.521164,69.934074 207.770294,69.836235 208.060028,69.844040 
	C208.581909,69.567703 208.814056,69.283562 209.018280,68.997742 
	C208.990356,68.996063 209.008453,69.048981 209.342880,69.016693 
	C210.799408,67.994659 211.921494,67.004921 213.019394,66.006897 
	C212.995193,65.998611 213.011093,66.047234 213.349457,66.009018 
	C214.069580,65.304550 214.451355,64.638306 214.998535,63.673492 
	C217.670746,59.986115 220.177567,56.597301 222.824982,53.526665 
	C224.308350,55.890137 225.532104,58.026562 227.015717,59.964008 
	C231.911011,66.356750 237.976257,71.120537 246.137894,73.348358 
	C246.878418,74.406982 247.439209,75.203491 248.000000,76.000000 
z"/>
<path fill="#47704C" opacity="1.000000" stroke="none" 
	d="
M182.000000,76.000000 
	C164.979111,76.000000 147.958206,76.000000 130.604065,75.657867 
	C134.529999,73.215874 138.789185,71.116013 143.024933,69.006561 
	C143.001526,68.996964 143.010162,69.046974 143.334091,68.989990 
	C144.172379,68.284950 144.686752,67.636879 145.488190,66.838509 
	C149.365616,62.076248 152.955978,57.464298 156.743469,53.109322 
	C158.683563,55.957191 160.426529,58.548084 162.237640,61.427879 
	C162.867676,62.497295 163.429565,63.277817 163.994873,64.026901 
	C163.998291,63.995464 163.935577,64.003723 163.979340,64.342468 
	C164.680756,65.133484 165.338394,65.585762 166.002502,66.016617 
	C166.008942,65.995186 165.965790,66.007080 166.093506,66.292114 
	C166.813995,66.727066 167.406769,66.876976 168.001083,67.010155 
	C168.002625,66.993423 167.974167,67.011314 168.001099,67.371849 
	C171.347946,69.432060 174.667877,71.131737 178.280777,72.982498 
	C179.715836,74.089058 180.857910,75.044525 182.000000,76.000000 
z"/>
<path fill="#47704C" opacity="1.000000" stroke="none" 
	d="
M116.000000,76.000000 
	C99.645775,76.000000 83.291542,76.000000 66.498024,75.630264 
	C69.422523,73.186394 72.786316,71.112251 76.487213,68.995827 
	C81.267288,63.989880 85.710266,59.026215 90.450775,54.236427 
	C91.165459,55.460991 91.360916,56.690140 92.038185,57.531410 
	C94.939110,61.134850 96.359451,66.327873 101.995819,67.040436 
	C101.996071,66.999710 101.914627,66.999306 101.963463,67.333969 
	C102.989471,68.480911 103.966637,69.293190 105.135849,70.403328 
	C108.885262,72.467461 112.442627,74.233734 116.000000,76.000000 
z"/>
<path fill="#FDC45D" opacity="1.000000" stroke="none" 
	d="
M116.464645,76.000000 
	C112.442627,74.233734 108.885262,72.467461 105.273834,70.206253 
	C105.419479,69.458397 105.650688,69.238625 106.273743,69.119644 
	C115.029968,73.010696 123.525726,75.625938 132.788040,72.131096 
	C136.124863,70.872055 139.623535,70.041985 143.048355,69.016144 
	C138.789185,71.116013 134.529999,73.215874 130.135406,75.657867 
	C125.643097,76.000000 121.286201,76.000000 116.464645,76.000000 
z"/>
<path fill="#EE4599" opacity="1.000000" stroke="none" 
	d="
M182.466125,76.000000 
	C180.857910,75.044525 179.715836,74.089058 178.280716,72.787590 
	C177.987686,72.441589 177.986420,72.051765 178.386841,72.061493 
	C186.302368,75.467766 193.719116,74.281898 201.160965,71.720795 
	C202.689407,71.194778 204.412384,71.234093 206.045700,71.012833 
	C203.119843,72.449257 200.194000,73.885689 197.134064,75.661057 
	C192.310745,76.000000 187.621490,76.000000 182.466125,76.000000 
z"/>
<path fill="#4ED2BE" opacity="1.000000" stroke="none" 
	d="
M248.466125,76.000000 
	C247.439209,75.203491 246.878418,74.406982 246.426178,73.178970 
	C251.734924,73.173462 256.935120,73.599464 262.135315,74.025467 
	C262.378448,74.505928 262.621582,74.986382 262.932373,75.733421 
	C258.310730,76.000000 253.621490,76.000000 248.466125,76.000000 
z"/>
<path fill="#52CCD6" opacity="1.000000" stroke="none" 
	d="
M50.250000,76.000000 
	C45.342014,73.240318 40.684032,70.480644 36.342815,67.410568 
	C42.391167,69.406349 48.122749,71.712509 53.558220,74.079559 
	C52.508072,74.760300 51.754036,75.380150 51.000000,76.000000 
	C51.000000,76.000000 50.500000,76.000000 50.250000,76.000000 
z"/>
<path fill="#4BC8DB" opacity="1.000000" stroke="none" 
	d="
M76.150108,69.038109 
	C72.786316,71.112251 69.422523,73.186394 66.029366,75.630264 
	C65.250000,76.000000 64.500000,76.000000 63.281658,75.698563 
	C61.942177,74.925125 61.071033,74.453117 60.466408,73.754044 
	C65.871986,72.030678 71.011047,70.534393 76.150108,69.038109 
z"/>
<path fill="#4ACEC7" opacity="1.000000" stroke="none" 
	d="
M60.199894,73.981110 
	C61.071033,74.453117 61.942177,74.925125 62.906658,75.698563 
	C59.307091,76.000000 55.614182,76.000000 51.460636,76.000000 
	C51.754036,75.380150 52.508072,74.760300 54.011658,74.080887 
	C56.574104,74.007912 58.387001,73.994514 60.199894,73.981110 
z"/>
<path fill="#FCB21B" opacity="1.000000" stroke="none" 
	d="
M143.024933,69.006554 
	C139.623535,70.041985 136.124863,70.872055 132.788040,72.131096 
	C123.525726,75.625938 115.029968,73.010696 106.048904,68.890976 
	C104.280693,68.062874 103.097664,67.531090 101.914627,66.999306 
	C101.914627,66.999306 101.996071,66.999710 101.918625,66.706528 
	C97.935501,61.344250 94.029839,56.275150 90.040054,50.798985 
	C87.429375,41.904606 88.066277,33.463478 90.625580,24.918968 
	C92.275162,22.165113 93.625069,19.538328 94.974976,16.911541 
	C94.974976,16.911541 94.978882,16.985653 95.273026,16.893669 
	C96.038628,15.854742 96.510101,14.907796 96.981575,13.960850 
	C96.981575,13.960851 97.000214,14.004353 97.331833,13.977537 
	C104.761261,10.354352 111.859077,6.757984 118.956894,3.161615 
	C121.684212,3.121441 124.411537,3.081267 127.882347,3.302871 
	C132.850266,4.732284 137.074677,5.899919 141.299103,7.067554 
	C141.299103,7.067553 141.513382,7.059533 141.802429,7.298648 
	C142.410873,7.691612 142.730301,7.845459 143.049713,7.999307 
	C143.049713,7.999307 142.991943,8.002733 143.045624,8.328165 
	C144.415741,9.429714 145.732178,10.205832 147.048630,10.981951 
	C147.048630,10.981952 146.997620,11.001041 147.039032,11.330296 
	C148.155090,12.463881 149.229752,13.268212 150.304413,14.072546 
	C150.531723,14.083229 150.707123,14.184135 150.876129,14.901270 
	C151.640045,16.283634 152.358459,17.139996 153.076874,17.996353 
	C153.076874,17.996353 153.008423,17.990812 153.013855,18.305565 
	C153.708862,19.409971 154.398438,20.199629 155.088013,20.989285 
	C155.088013,20.989285 155.018082,20.983969 155.003860,21.350204 
	C155.468536,22.913074 155.947433,24.109709 156.408203,25.706982 
	C153.064651,35.042267 154.326157,43.950108 156.546341,52.852348 
	C152.955978,57.464298 149.365616,62.076248 145.152969,66.882851 
	C144.023849,67.733986 143.516998,68.390480 143.010162,69.046974 
	C143.010162,69.046974 143.001526,68.996964 143.024933,69.006554 
M124.272995,21.609406 
	C123.496712,21.619417 122.720436,21.629427 121.494804,21.437878 
	C121.015739,21.987169 120.536682,22.536461 119.881180,23.241302 
	C119.881180,23.241302 119.687279,23.108149 118.859955,23.307735 
	C118.258186,24.199684 117.152222,25.081652 117.134346,25.985159 
	C116.989975,33.278461 116.946693,40.578918 117.165375,47.868408 
	C117.196335,48.900677 118.806816,49.885559 119.879715,50.758366 
	C119.879715,50.758366 120.056297,50.913979 120.184387,51.581516 
	C122.720894,54.489410 125.009323,54.489498 127.249680,50.214157 
	C127.366936,41.611393 127.484200,33.008625 127.708359,23.792032 
	C126.821892,23.073866 125.935425,22.355700 124.272995,21.609406 
z"/>
<path fill="#07AFD6" opacity="1.000000" stroke="none" 
	d="
M90.325912,25.046034 
	C88.066277,33.463478 87.429375,41.904606 89.962669,51.147896 
	C90.030685,52.623432 90.091965,53.342991 90.153236,54.062546 
	C85.710266,59.026215 81.267288,63.989880 76.487213,68.995827 
	C71.011047,70.534393 65.871986,72.030678 60.466408,73.754044 
	C58.387001,73.994514 56.574104,74.007912 54.307770,74.019997 
	C48.122749,71.712509 42.391167,69.406349 36.302200,67.048477 
	C35.944817,66.996780 36.010475,66.989067 35.835518,66.770393 
	C35.094677,66.366615 34.528793,66.181519 33.962914,65.996414 
	C33.962914,65.996414 34.011414,65.983887 33.974739,65.656479 
	C32.574459,63.900509 31.210852,62.471954 29.847244,61.043400 
	C29.553316,60.963882 29.317902,60.800205 29.026791,60.007641 
	C28.254488,58.640766 27.596397,57.818611 26.938309,56.996456 
	C26.938309,56.996456 27.003195,57.007301 26.997604,56.722378 
	C26.638226,55.953682 26.284439,55.469910 25.930653,54.986137 
	C25.930653,54.986137 26.006264,54.979301 25.895573,54.825943 
	C25.604332,54.433708 25.391987,54.227585 25.147840,54.054226 
	C22.412140,47.287502 21.020931,40.395374 22.812189,33.095783 
	C23.196442,31.529905 22.969183,29.813971 23.348240,27.540461 
	C24.449974,24.927601 25.227093,22.941441 26.004211,20.955280 
	C26.004211,20.955280 26.020292,21.015631 26.312477,20.904099 
	C28.071291,18.514938 29.537920,16.237314 31.004549,13.959689 
	C31.004549,13.959689 31.013018,14.013070 31.330811,14.057701 
	C33.073730,12.700160 34.498859,11.297989 35.923985,9.895817 
	C49.020332,-1.260913 72.460327,2.490455 81.471588,11.867585 
	C84.379509,14.893570 86.763695,18.422855 89.670975,22.289797 
	C90.078293,23.587139 90.202103,24.316587 90.325912,25.046034 
M66.750076,28.302004 
	C68.305779,27.244976 69.861481,26.187948 71.417183,25.130919 
	C70.398605,24.040539 69.413033,22.044125 68.356140,22.005621 
	C61.048237,21.739382 53.720268,21.751488 46.413654,22.045143 
	C45.429352,22.084702 43.981724,24.118685 43.790371,25.386387 
	C43.672112,26.169827 45.421616,27.408978 46.534206,28.134386 
	C47.130440,28.523134 48.172867,28.387419 48.980148,28.265186 
	C52.661381,27.707806 53.603149,29.515581 53.463531,32.857521 
	C53.269234,37.508099 53.441265,42.172974 53.395454,46.831131 
	C53.366829,49.741856 53.848766,52.426609 57.416054,52.517025 
	C61.025734,52.608517 61.599983,49.993671 61.566128,47.031330 
	C61.510998,42.206985 61.695816,37.375568 61.498219,32.558670 
	C61.362640,29.253674 62.681435,27.936499 66.750076,28.302004 
z"/>
<path fill="#12CD88" opacity="1.000000" stroke="none" 
	d="
M262.515533,74.006111 
	C256.935120,73.599464 251.734924,73.173462 246.246460,72.916840 
	C237.976257,71.120537 231.911011,66.356750 227.015717,59.964008 
	C225.532104,58.026562 224.308350,55.890137 222.933624,53.135040 
	C220.116776,43.894093 219.366211,35.352489 222.315033,26.650019 
	C222.777283,25.285809 222.115067,23.540577 221.972809,21.971527 
	C223.672531,20.228003 225.596664,18.650980 227.034348,16.713051 
	C234.545395,6.588505 244.831375,2.598860 257.064453,3.027238 
	C270.383148,3.493633 280.605347,9.226598 286.884979,21.845535 
	C287.896698,30.001532 288.983368,37.535538 290.070007,45.069546 
	C289.926605,56.532970 282.463806,63.341183 274.104584,69.238098 
	C270.864197,71.523987 266.660583,72.444336 262.515533,74.006111 
M246.346313,51.246010 
	C251.933990,51.579987 257.521820,52.108120 263.109222,52.103760 
	C264.414490,52.102745 265.718353,50.295296 267.022858,49.318974 
	C265.655457,48.232269 264.435822,46.652576 262.882263,46.186920 
	C261.048157,45.637169 258.833160,46.411869 256.956604,45.933144 
	C255.433289,45.544537 253.251770,44.372433 252.960907,43.163258 
	C252.169754,39.874054 254.914322,40.071918 257.107697,40.061024 
	C258.439453,40.054409 259.773071,40.011463 261.102722,40.064194 
	C265.035370,40.220150 266.700897,38.605228 265.347046,34.050117 
	C262.645752,34.050117 259.847260,33.978378 257.053894,34.067673 
	C253.278442,34.188362 251.897995,32.745193 253.230682,29.175770 
	C256.980927,28.701073 260.443878,28.480413 263.786621,27.726746 
	C265.030396,27.446329 265.992950,25.918634 267.083771,24.959709 
	C266.022705,23.914551 265.034821,22.072807 263.887421,21.967398 
	C259.759430,21.588173 255.557510,21.547451 251.424362,21.882439 
	C249.288925,22.055511 247.239395,23.288738 244.423615,24.349632 
	C243.982880,25.013222 243.169220,25.670994 243.158752,26.341293 
	C243.047058,33.500633 242.956284,40.664989 243.160187,47.819408 
	C243.190048,48.866631 244.789169,49.869129 246.346313,51.246010 
z"/>
<path fill="#E8147E" opacity="1.000000" stroke="none" 
	d="
M221.656647,21.823624 
	C222.115067,23.540577 222.777283,25.285809 222.315033,26.650019 
	C219.366211,35.352489 220.116776,43.894093 222.793030,52.816860 
	C220.177567,56.597301 217.670746,59.986115 214.705261,63.760193 
	C213.834763,64.779381 213.422928,65.413307 213.011093,66.047234 
	C213.011093,66.047234 212.995193,65.998611 212.659729,65.996826 
	C211.218994,67.013023 210.113724,68.030998 209.008453,69.048981 
	C209.008453,69.048981 208.990356,68.996063 208.776993,69.086853 
	C208.299194,69.397171 208.034744,69.616707 207.770294,69.836243 
	C207.770294,69.836235 207.521164,69.934074 207.121216,70.057053 
	C206.478134,70.469246 206.235016,70.758469 205.991882,71.047691 
	C205.991882,71.047691 205.995850,70.994514 206.020782,71.003670 
	C204.412384,71.234093 202.689407,71.194778 201.160965,71.720795 
	C193.719116,74.281898 186.302368,75.467766 178.089935,71.885681 
	C174.253128,70.137207 171.113647,68.574265 167.974167,67.011314 
	C167.974167,67.011314 168.002625,66.993423 167.842667,66.747910 
	C167.110397,66.337296 166.538101,66.172188 165.965790,66.007080 
	C165.965790,66.007080 166.008942,65.995186 165.965698,65.694946 
	C165.260147,64.931053 164.597870,64.467392 163.935577,64.003723 
	C163.935577,64.003723 163.998291,63.995464 163.991699,63.704018 
	C163.379898,62.654701 162.774704,61.896839 162.169510,61.138977 
	C160.426529,58.548084 158.683563,55.957191 156.743469,53.109322 
	C154.326157,43.950108 153.064651,35.042267 156.588150,25.450739 
	C156.812653,24.183109 156.839050,23.572363 156.865463,22.961615 
	C161.138107,16.450787 165.775391,10.341169 172.920273,6.601077 
	C180.634689,2.562848 198.502747,1.657120 207.239532,7.310443 
	C213.210159,11.173878 218.324020,15.218540 221.656647,21.823624 
M184.906021,43.475349 
	C188.792526,49.781963 190.684708,49.742073 194.428635,43.284378 
	C195.447556,41.526875 196.489456,39.782700 197.520813,38.032413 
	C198.558777,41.561371 198.169922,44.862846 198.716736,48.001301 
	C199.006271,49.663136 200.716675,52.043652 202.147644,52.337643 
	C205.055725,52.935112 205.954163,50.576508 205.931000,47.872597 
	C205.874039,41.223980 206.122696,34.563988 205.790039,27.931561 
	C205.683731,25.811775 204.138504,23.764158 203.251633,21.683519 
	C201.231552,23.019083 198.611252,23.933239 197.316177,25.777830 
	C194.609573,29.632885 192.602127,33.978821 189.772964,39.088528 
	C186.607239,33.477001 184.253586,28.756996 181.325378,24.425386 
	C180.360901,22.998640 177.868195,21.865797 176.156082,21.968052 
	C175.169983,22.026945 173.639450,24.797363 173.573868,26.397278 
	C173.288116,33.367146 173.476669,40.355518 173.435776,47.336834 
	C173.419739,50.074257 173.956604,52.990791 177.190033,52.336433 
	C178.696121,52.031635 180.194107,49.023846 180.676331,46.998547 
	C181.275620,44.481640 180.820023,41.713562 180.820023,39.053967 
	C181.217758,39.027332 181.615494,39.000702 182.013229,38.974072 
	C182.803925,40.290337 183.594604,41.606602 184.906021,43.475349 
z"/>
<path fill="#FEC458" opacity="1.000000" stroke="none" 
	d="
M118.531876,3.102799 
	C111.859077,6.757984 104.761261,10.354352 97.310059,13.968242 
	C102.086517,6.626770 109.332489,3.358208 118.531876,3.102799 
z"/>
<path fill="#38D69C" opacity="1.000000" stroke="none" 
	d="
M290.359955,44.762241 
	C288.983368,37.535538 287.896698,30.001532 286.944824,22.193192 
	C288.391693,24.983465 290.420410,27.953266 290.841461,31.135756 
	C291.417603,35.490826 290.771881,40.007523 290.359955,44.762241 
z"/>
<path fill="#FEC558" opacity="1.000000" stroke="none" 
	d="
M141.087646,6.741364 
	C137.074677,5.899919 132.850266,4.732284 128.333313,3.363296 
	C132.319260,4.246353 136.597733,5.330764 141.087646,6.741364 
z"/>
<path fill="#FEC458" opacity="1.000000" stroke="none" 
	d="
M90.625580,24.918968 
	C90.202103,24.316587 90.078293,23.587139 89.958557,22.481079 
	C91.420601,20.470890 92.878578,18.837317 94.655762,17.057642 
	C93.625069,19.538328 92.275162,22.165113 90.625580,24.918968 
z"/>
<path fill="#70D5DD" opacity="1.000000" stroke="none" 
	d="
M30.643993,13.983856 
	C29.537920,16.237314 28.071291,18.514938 26.281456,20.907675 
	C27.399979,18.684532 28.841709,16.346277 30.643993,13.983856 
z"/>
<path fill="#70D5DD" opacity="1.000000" stroke="none" 
	d="
M25.646364,21.005589 
	C25.227093,22.941441 24.449974,24.927601 23.372766,27.117290 
	C23.811289,25.232513 24.549904,23.144207 25.646364,21.005589 
z"/>
<path fill="#70D5DD" opacity="1.000000" stroke="none" 
	d="
M35.565926,9.956504 
	C34.498859,11.297989 33.073730,12.700160 31.304146,14.053301 
	C32.375748,12.675244 33.791805,11.346218 35.565926,9.956504 
z"/>
<path fill="#52CCD6" opacity="1.000000" stroke="none" 
	d="
M29.940044,61.387390 
	C31.210852,62.471954 32.574459,63.900509 33.972519,65.681427 
	C32.682266,64.599648 31.357553,63.165516 29.940044,61.387390 
z"/>
<path fill="#FEC558" opacity="1.000000" stroke="none" 
	d="
M146.928589,10.669705 
	C145.732178,10.205832 144.415741,9.429714 143.054321,8.300570 
	C144.275742,8.750849 145.542145,9.554155 146.928589,10.669705 
z"/>
<path fill="#FEC558" opacity="1.000000" stroke="none" 
	d="
M150.175156,13.732450 
	C149.229752,13.268212 148.155090,12.463881 147.045807,11.303922 
	C148.022751,11.762981 149.034317,12.577669 150.175156,13.732450 
z"/>
<path fill="#FEC558" opacity="1.000000" stroke="none" 
	d="
M156.598450,22.841091 
	C156.839050,23.572363 156.812653,24.183109 156.606293,25.050098 
	C155.947433,24.109709 155.468536,22.913074 155.008423,21.315434 
	C155.461945,21.516476 155.896683,22.118521 156.598450,22.841091 
z"/>
<path fill="#FEC458" opacity="1.000000" stroke="none" 
	d="
M96.672928,14.075020 
	C96.510101,14.907796 96.038628,15.854742 95.235947,16.895100 
	C95.391243,16.055407 95.877754,15.122298 96.672928,14.075020 
z"/>
<path fill="#52CCD6" opacity="1.000000" stroke="none" 
	d="
M27.060829,57.291737 
	C27.596397,57.818611 28.254488,58.640766 28.935394,59.809231 
	C28.366589,59.299366 27.774971,58.443192 27.060829,57.291737 
z"/>
<path fill="#FEC558" opacity="1.000000" stroke="none" 
	d="
M152.949722,17.685528 
	C152.358459,17.139996 151.640045,16.283634 150.922058,15.051096 
	C151.555847,15.574844 152.189209,16.474771 152.949722,17.685528 
z"/>
<path fill="#FEC558" opacity="1.000000" stroke="none" 
	d="
M154.965317,20.693110 
	C154.398438,20.199629 153.708862,19.409971 153.019577,18.271709 
	C153.627457,18.747711 154.235046,19.572323 154.965317,20.693110 
z"/>
<path fill="#52CCD6" opacity="1.000000" stroke="none" 
	d="
M34.101086,66.278061 
	C34.528793,66.181519 35.094677,66.366615 35.840508,66.803085 
	C35.426727,66.889526 34.832993,66.724617 34.101086,66.278061 
z"/>
<path fill="#52CCD6" opacity="1.000000" stroke="none" 
	d="
M25.955412,55.303246 
	C26.284439,55.469910 26.638226,55.953682 26.987080,56.753540 
	C26.648153,56.586533 26.314161,56.103443 25.955412,55.303246 
z"/>
<path fill="#52CCD6" opacity="1.000000" stroke="none" 
	d="
M25.182171,54.295307 
	C25.391987,54.227585 25.604332,54.433708 25.899408,54.863708 
	C25.669867,55.002357 25.404053,54.829540 25.182171,54.295307 
z"/>
<path fill="#FEC558" opacity="1.000000" stroke="none" 
	d="
M142.936859,7.722077 
	C142.730301,7.845459 142.410873,7.691612 141.899231,7.344723 
	C142.079346,7.249404 142.451675,7.347126 142.936859,7.722077 
z"/>
<path fill="#EE4599" opacity="1.000000" stroke="none" 
	d="
M209.342880,69.016693 
	C210.113724,68.030998 211.218994,67.013023 212.683929,66.005112 
	C211.921494,67.004921 210.799408,67.994659 209.342880,69.016693 
z"/>
<path fill="#EE4599" opacity="1.000000" stroke="none" 
	d="
M213.349457,66.009018 
	C213.422928,65.413307 213.834763,64.779381 214.539856,64.058762 
	C214.451355,64.638306 214.069580,65.304550 213.349457,66.009018 
z"/>
<path fill="#EE4599" opacity="1.000000" stroke="none" 
	d="
M208.060028,69.844048 
	C208.034744,69.616707 208.299194,69.397171 208.804916,69.088531 
	C208.814056,69.283562 208.581909,69.567703 208.060028,69.844048 
z"/>
<path fill="#EE4599" opacity="1.000000" stroke="none" 
	d="
M206.266876,70.954376 
	C206.235016,70.758469 206.478134,70.469246 206.987656,70.065567 
	C207.016647,70.254433 206.779251,70.557747 206.266876,70.954376 
z"/>
<path fill="#EF4F9F" opacity="1.000000" stroke="none" 
	d="
M168.001099,67.371849 
	C171.113647,68.574265 174.253128,70.137207 177.689514,71.875961 
	C177.986420,72.051765 177.987686,72.441589 177.987747,72.636505 
	C174.667877,71.131737 171.347946,69.432060 168.001099,67.371849 
z"/>
<path fill="#FDC45D" opacity="1.000000" stroke="none" 
	d="
M143.334091,68.989990 
	C143.516998,68.390480 144.023849,67.733986 144.865906,67.033157 
	C144.686752,67.636879 144.172379,68.284950 143.334091,68.989990 
z"/>
<path fill="#EF4F9F" opacity="1.000000" stroke="none" 
	d="
M163.979340,64.342468 
	C164.597870,64.467392 165.260147,64.931053 165.959244,65.716385 
	C165.338394,65.585762 164.680756,65.133484 163.979340,64.342468 
z"/>
<path fill="#EF4F9F" opacity="1.000000" stroke="none" 
	d="
M162.237640,61.427876 
	C162.774704,61.896839 163.379898,62.654701 163.988281,63.735451 
	C163.429565,63.277817 162.867676,62.497295 162.237640,61.427876 
z"/>
<path fill="#EF4F9F" opacity="1.000000" stroke="none" 
	d="
M166.093506,66.292114 
	C166.538101,66.172188 167.110397,66.337296 167.841125,66.764648 
	C167.406769,66.876976 166.813995,66.727066 166.093506,66.292114 
z"/>
<path fill="#FBC862" opacity="1.000000" stroke="none" 
	d="
M90.450775,54.236427 
	C90.091965,53.342991 90.030685,52.623432 90.046791,51.554966 
	C94.029839,56.275150 97.935501,61.344250 101.918365,66.747253 
	C96.359451,66.327873 94.939110,61.134850 92.038185,57.531410 
	C91.360916,56.690140 91.165459,55.460991 90.450775,54.236427 
z"/>
<path fill="#FBC862" opacity="1.000000" stroke="none" 
	d="
M101.963463,67.333969 
	C103.097664,67.531090 104.280693,68.062874 105.688568,68.823334 
	C105.650688,69.238625 105.419479,69.458397 105.081795,69.908386 
	C103.966637,69.293190 102.989471,68.480911 101.963463,67.333969 
z"/>
<path fill="#FFFCF5" opacity="1.000000" stroke="none" 
	d="
M120.056297,50.913979 
	C120.056297,50.913979 119.879715,50.758366 119.734192,50.364521 
	C119.621536,41.016499 119.654404,32.062325 119.687271,23.108149 
	C119.687279,23.108149 119.881180,23.241302 120.255157,23.060207 
	C121.067482,22.465889 121.505821,22.052666 121.944153,21.639441 
	C122.720436,21.629427 123.496712,21.619417 124.838066,21.884171 
	C126.135910,22.907911 126.868683,23.656887 127.601463,24.405861 
	C127.484200,33.008625 127.366936,41.611393 126.775551,50.723091 
	C124.219711,51.126011 122.138008,51.019997 120.056297,50.913979 
z"/>
<path fill="#FDA904" opacity="1.000000" stroke="none" 
	d="
M119.273613,23.207943 
	C119.654404,32.062325 119.621536,41.016499 119.637444,50.431526 
	C118.806816,49.885559 117.196335,48.900677 117.165375,47.868408 
	C116.946693,40.578918 116.989975,33.278461 117.134346,25.985159 
	C117.152222,25.081652 118.258186,24.199684 119.273613,23.207943 
z"/>
<path fill="#FECA62" opacity="1.000000" stroke="none" 
	d="
M120.120346,51.247749 
	C122.138008,51.019997 124.219711,51.126011 126.650726,51.116035 
	C125.009323,54.489498 122.720894,54.489410 120.120346,51.247749 
z"/>
<path fill="#FECA62" opacity="1.000000" stroke="none" 
	d="
M127.654907,24.098948 
	C126.868683,23.656887 126.135910,22.907911 125.226044,21.898235 
	C125.935425,22.355700 126.821892,23.073866 127.654907,24.098948 
z"/>
<path fill="#FECA62" opacity="1.000000" stroke="none" 
	d="
M121.719482,21.538660 
	C121.505821,22.052666 121.067482,22.465889 120.343384,22.982433 
	C120.536682,22.536461 121.015739,21.987169 121.719482,21.538660 
z"/>
<path fill="#EAF8FC" opacity="1.000000" stroke="none" 
	d="
M66.314514,28.305237 
	C62.681435,27.936499 61.362640,29.253674 61.498219,32.558670 
	C61.695816,37.375568 61.510998,42.206985 61.566128,47.031330 
	C61.599983,49.993671 61.025734,52.608517 57.416054,52.517025 
	C53.848766,52.426609 53.366829,49.741856 53.395454,46.831131 
	C53.441265,42.172974 53.269234,37.508099 53.463531,32.857521 
	C53.603149,29.515581 52.661381,27.707806 48.980148,28.265186 
	C48.172867,28.387419 47.130440,28.523134 46.534206,28.134386 
	C45.421616,27.408978 43.672112,26.169827 43.790371,25.386387 
	C43.981724,24.118685 45.429352,22.084702 46.413654,22.045143 
	C53.720268,21.751488 61.048237,21.739382 68.356140,22.005621 
	C69.413033,22.044125 70.398605,24.040539 71.417183,25.130919 
	C69.861481,26.187948 68.305779,27.244976 66.314514,28.305237 
z"/>
<path fill="#E8FAF4" opacity="1.000000" stroke="none" 
	d="
M245.151062,24.042965 
	C247.239395,23.288738 249.288925,22.055511 251.424362,21.882439 
	C255.557510,21.547451 259.759430,21.588173 263.887421,21.967398 
	C265.034821,22.072807 266.022705,23.914551 267.083771,24.959711 
	C265.992950,25.918634 265.030396,27.446329 263.786621,27.726746 
	C260.443878,28.480413 256.980927,28.701073 253.230682,29.175770 
	C251.897995,32.745193 253.278442,34.188362 257.053894,34.067673 
	C259.847260,33.978378 262.645752,34.050117 265.347046,34.050117 
	C266.700897,38.605228 265.035370,40.220150 261.102722,40.064194 
	C259.773071,40.011463 258.439453,40.054409 257.107697,40.061024 
	C254.914322,40.071918 252.169754,39.874054 252.960907,43.163258 
	C253.251770,44.372433 255.433289,45.544537 256.956604,45.933144 
	C258.833160,46.411869 261.048157,45.637169 262.882263,46.186920 
	C264.435822,46.652576 265.655457,48.232269 267.022858,49.318974 
	C265.718353,50.295296 264.414490,52.102745 263.109222,52.103760 
	C257.521820,52.108120 251.933990,51.579987 245.896378,50.614624 
	C245.347977,41.336479 245.249527,32.689720 245.151062,24.042965 
z"/>
<path fill="#00C87D" opacity="1.000000" stroke="none" 
	d="
M244.787338,24.196297 
	C245.249527,32.689720 245.347977,41.336479 245.554321,50.437782 
	C244.789169,49.869129 243.190048,48.866631 243.160187,47.819408 
	C242.956284,40.664989 243.047058,33.500633 243.158752,26.341293 
	C243.169220,25.670994 243.982880,25.013222 244.787338,24.196297 
z"/>
<path fill="#FEF0F7" opacity="1.000000" stroke="none" 
	d="
M184.645660,43.199112 
	C183.594604,41.606602 182.803925,40.290337 182.013229,38.974072 
	C181.615494,39.000702 181.217758,39.027332 180.820023,39.053967 
	C180.820023,41.713562 181.275620,44.481640 180.676331,46.998547 
	C180.194107,49.023846 178.696121,52.031635 177.190033,52.336433 
	C173.956604,52.990791 173.419739,50.074257 173.435776,47.336834 
	C173.476669,40.355518 173.288116,33.367146 173.573868,26.397278 
	C173.639450,24.797363 175.169983,22.026945 176.156082,21.968052 
	C177.868195,21.865797 180.360901,22.998640 181.325378,24.425386 
	C184.253586,28.756996 186.607239,33.477001 189.772964,39.088528 
	C192.602127,33.978821 194.609573,29.632885 197.316177,25.777830 
	C198.611252,23.933239 201.231552,23.019083 203.251648,21.683519 
	C204.138504,23.764158 205.683731,25.811775 205.790039,27.931561 
	C206.122696,34.563988 205.874039,41.223980 205.931000,47.872597 
	C205.954163,50.576508 205.055725,52.935112 202.147644,52.337643 
	C200.716675,52.043652 199.006271,49.663136 198.716736,48.001301 
	C198.169922,44.862846 198.558777,41.561371 197.520813,38.032413 
	C196.489456,39.782700 195.447556,41.526875 194.428635,43.284378 
	C190.684708,49.742073 188.792526,49.781963 184.645660,43.199112 
z"/>
</svg>